<svg xmlns="http://www.w3.org/2000/svg" width="32" height="32" fill="none"><path fill="#192A32" d="m7 20 1.42-1.408L9.84 20l-1.42 1.408L7 20ZM22 20l1.42-1.408L24.84 20l-1.42 1.408L22 20Z"/><path fill="#192A32" d="M32 8.593V2H0v6.593h3.766v6.6l-1.659.94A4.15 4.15 0 0 0 0 19.735a4.15 4.15 0 0 0 2.107 3.601l9.91 5.616a8.092 8.092 0 0 0 7.966 0l9.91-5.616a4.15 4.15 0 0 0 2.107-3.6 4.15 4.15 0 0 0-2.107-3.601l-1.659-.94v-6.6H32ZM1.875 3.86h28.25v2.875H1.875V3.859Zm18.108 6.659a8.093 8.093 0 0 0-7.966 0l-2.61 1.48V8.592h13.187v3.404l-2.611-1.48ZM5.64 8.593h1.89v4.467l-1.89 1.071V8.593Zm24.484 11.141a2.29 2.29 0 0 1-1.162 1.987l-9.91 5.616a6.203 6.203 0 0 1-6.105 0l-9.91-5.616a2.29 2.29 0 0 1-1.163-1.987c0-.819.445-1.58 1.162-1.986l9.91-5.616a6.202 6.202 0 0 1 6.105 0l9.91 5.616a2.29 2.29 0 0 1 1.163 1.986Zm-3.766-5.603-1.89-1.071V8.593h1.89v5.538Z"/><path fill="#192A32" d="M15.5 15c-2.933 1.862-4.513 3.647-4.5 5.49 0 1.733 1.329 3.142 2.962 3.142.21 0 .418-.024.62-.07V25h1.835v-1.438c.203.046.41.07.62.07 1.634 0 2.963-1.41 2.963-3.142.035-1.98-1.862-3.808-4.5-5.49Zm1.538 6.685c-.604.074-1.19-.84-1.538-1.245-.4.444-.842 1.26-1.538 1.245-.621 0-1.127-.536-1.127-1.194 0-1.047 1.354-2.258 2.665-3.184 1.31.926 2.664 2.137 2.664 3.184 0 .658-.505 1.194-1.126 1.194Z"/></svg>