<svg xmlns="http://www.w3.org/2000/svg" width="32" height="32" fill="none"><path fill="#192A32" d="M11 27h2v2h-2v-2Z"/><path fill="#192A32" d="M29.296 24.208a4.89 4.89 0 0 0-3.475-3.655l-5.1-1.434-.429-2.128a6.374 6.374 0 0 0 2.267-4.903v-3.6c.627-.427 1.453-1.328 1.453-3.125.071-2.763-2.446-5.428-5.319-5.362-.898 0-1.896.195-2.953.401-2.267.507-4.498.751-6.377-.358-1.185 2.991-.837 5.801 1.078 8.226v3.818c0 1.98.886 3.748 2.267 4.903l-.428 2.128-5.101 1.434a4.89 4.89 0 0 0-3.475 3.655L2 32h29l-1.704-7.792ZM16.5 27.088a8.82 8.82 0 0 0-.87-1.389l-.617-.806 1.487-1.892 1.487 1.892-.616.806a8.813 8.813 0 0 0-.871 1.39Zm-2.39-.26a7.025 7.025 0 0 1 1.372 3.297H9.61V21.82l.548-.155 3.951 5.163Zm4.78 0 3.952-5.163.549.155v8.305h-5.873a7.024 7.024 0 0 1 1.373-3.297Zm1.99-5.714-1.705 2.227-1.201-1.528 2.011-.95.895.251Zm-9.037-14.12c-1.003-1.29-1.438-2.906-1.215-4.45 1.802.416 3.739.038 5.482-.302.963-.188 1.872-.366 2.583-.366 1.851 0 3.415 1.597 3.415 3.487 0 .287-.032.526-.083.725-.666-1.116-2.068-1.771-3.456-1.662-1.267 1.58-3.257 2.578-5.326 2.567h-1.4Zm.502 1.874h.898c2.31 0 4.518-.914 6.131-2.525.733.167 1.281.816 1.281 1.588v4.157c0 2.435-1.864 4.416-4.155 4.416-2.291 0-4.155-1.98-4.155-4.416v-3.22ZM16.5 18.38c.721 0 1.413-.132 2.056-.373l.266 1.327L16.5 20.43l-2.322-1.097.266-1.327a5.831 5.831 0 0 0 2.056.373Zm-3.485 2.484 2.011.95-1.201 1.529-1.705-2.228.895-.251Zm-7.45 3.74a3.006 3.006 0 0 1 2.136-2.247l.005-.001v7.77H4.357l1.208-5.522Zm19.73 5.522v-7.77h.004a3.006 3.006 0 0 1 2.136 2.248l1.207 5.522h-3.348Z"/></svg>