<svg xmlns="http://www.w3.org/2000/svg" width="32" height="32" fill="none"><path fill="#192A32" d="M8 24h17v2H8v-2ZM9 18l1.42-1.408L11.84 18l-1.42 1.408L9 18ZM20 18l1.42-1.408L22.84 18l-1.42 1.408L20 18ZM12 16.5l3.5 4.5 3.5-4.5-3.5-4.5-3.5 4.5Zm3.5 1.492L14.34 16.5l1.16-1.492 1.16 1.492-1.16 1.492Z"/><path fill="#192A32" d="M32 12.266c0-1.543-1.265-2.797-2.82-2.797-1.539 0-2.793 1.228-2.82 2.748l-1.842.608a3.123 3.123 0 0 1-3.689-1.412L18.12 6.638c.436-.492.7-1.136.7-1.841C18.82 3.255 17.555 2 16 2s-2.82 1.255-2.82 2.797c0 .705.264 1.349.7 1.841l-2.71 4.775a3.123 3.123 0 0 1-3.688 1.412l-1.843-.608c-.026-1.52-1.28-2.748-2.819-2.748-1.555 0-2.82 1.255-2.82 2.797 0 1.408 1.055 2.576 2.423 2.768l1.137 5.638H2.45v1.86h1.316v5.609H2.45V30h27.1v-1.86h-1.316v-5.609h1.316v-1.86h-1.11l1.137-5.637c1.368-.192 2.423-1.36 2.423-2.768Zm-2.82-.938c.52 0 .945.42.945.938a.942.942 0 0 1-.945.937.942.942 0 0 1-.946-.937c0-.517.424-.938.946-.938ZM16 3.86c.521 0 .945.421.945.938a.942.942 0 0 1-.945.937.942.942 0 0 1-.945-.937c0-.517.424-.938.945-.938ZM1.875 12.266c0-.517.424-.938.945-.938.522 0 .946.42.946.938a.942.942 0 0 1-.946.937.942.942 0 0 1-.945-.937ZM26.359 28.14H5.641v-5.61h20.718v5.61ZM5.472 20.67l-1.21-6.002c.302-.18.568-.414.784-.689l1.844.61c2.149.736 4.769-.189 5.915-2.265l2.708-4.774a2.846 2.846 0 0 0 .974 0l2.708 4.774c1.167 2.068 3.671 2.997 5.916 2.264l1.843-.608c.216.274.482.509.785.688l-1.21 6.003H5.472Z"/></svg>