<svg xmlns="http://www.w3.org/2000/svg" width="19" height="31" fill="none"><path fill="#192A32" stroke="#192A32" d="M15.5 1h-12a2.429 2.429 0 0 0-1.764.79A2.803 2.803 0 0 0 1 3.685v23.63c.003.71.268 1.392.736 1.895A2.429 2.429 0 0 0 3.5 30h12a2.429 2.429 0 0 0 1.764-.79A2.802 2.802 0 0 0 18 27.315V3.685a2.802 2.802 0 0 0-.736-1.895A2.429 2.429 0 0 0 15.5 1ZM2 6.37h15v18.26H2V6.37Zm1.5-4.296h12c.398 0 .78.17 1.06.472.282.302.44.712.44 1.14v1.61H2v-1.61c0-.428.158-.838.44-1.14a1.45 1.45 0 0 1 1.06-.472Zm12 26.852h-12c-.398 0-.78-.17-1.06-.472a1.674 1.674 0 0 1-.44-1.14v-1.61h15v1.61c0 .428-.158.838-.44 1.14a1.45 1.45 0 0 1-1.06.472Z"/></svg>