<svg xmlns="http://www.w3.org/2000/svg" width="32" height="32" fill="none"><g fill="#192A32" clip-path="url(#a)"><path d="M26 7c1.654 0 3-1.27 3-2.833C29 1.845 26 0 26 0s-3 1.845-3 4.167C23 5.73 24.346 7 26 7Zm0-4.424c.522.552 1.006 1.211 1.006 1.591 0 .524-.451.95-1.006.95-.555 0-1.006-.426-1.006-.95 0-.384.48-1.037 1.006-1.59ZM15.958 22.409h1.084c.546 0 .99.41.99.914s-.444.914-.99.914H15.94c-.527 0-.955-.396-.955-.882h-1.968c0 1.356 1.088 2.48 2.5 2.67V27h1.968v-.977c1.422-.197 2.516-1.333 2.516-2.7 0-1.506-1.327-2.732-2.958-2.732h-1.084c-.546 0-.99-.41-.99-.914 0-.503.444-.913.99-.913h1.06c.546 0 .99.41.99.915h1.968c0-1.36-1.081-2.491-2.492-2.699V16h-1.968v.977c-1.422.197-2.516 1.333-2.516 2.7 0 1.506 1.327 2.732 2.958 2.732Z"/><path d="M24.634 11.297c-.05-2.952-1.767-4.813-4.196-5.89-.237.4-.386.885-.817 1.23-.248.186-.417.168-.61.079-.303-.141-.459-.287-.118-1.646C19.468 1.94 17.037.79 15.22 0c-.17 1.317-.006 2.511-1.46 3.492-1.792.955-1.583 2.312-1.458 3.122.106.69.116.904-.341 1.248-.1.074-.33.248-.862 0-.694-.356-.873-.694-1.322-1.116-1.474 1.183-2.35 2.714-2.408 4.55H0V32h32V11.297h-7.366ZM9.876 9.33c.868.527 2.102.865 3.213.03 1.374-1.033 1.182-2.284 1.067-3.03-.083-.565-.174-.841.487-1.184 1.025-.547 1.601-1.44 1.923-2.206l.013.013c.485.513.646 1.056.495 1.66-.157.626-.293 1.238-.234 1.857.084.893.562 1.566 1.383 1.947.935.441 2.028.246 2.819-.531a4.252 4.252 0 0 1 1.717 3.41H9.245a3.875 3.875 0 0 1 .631-1.966Zm13.655 10.978-.945.946v-4.317h2.055c.284.801.92 1.437 1.72 1.72v5.981a2.833 2.833 0 0 0-1.72 1.72h-2.055v-4.343l.945.945 1.326-1.326-1.326-1.326Zm-14.114.948-.948-.948-1.326 1.326 1.326 1.326.947-.948v4.347H7.361a2.833 2.833 0 0 0-1.72-1.72v-5.982a2.833 2.833 0 0 0 1.72-1.72h2.055v4.32Zm0-6.194h-3.77V16c0 .52-.424.943-.944.943h-.937v9.41h.937c.52 0 .943.423.943.943v.938h3.77v1.89H1.875V13.173h7.541v1.89ZM20.71 30.125h-9.42V13.172h9.42v16.953Zm9.414 0h-7.54v-1.891h3.771v-.938c0-.52.423-.943.943-.943h.938v-9.41h-.938a.944.944 0 0 1-.943-.943v-.938h-3.77v-1.89h7.539v16.953Z"/></g><defs><clipPath id="a"><path fill="#fff" d="M0 0h32v32H0z"/></clipPath></defs></svg>