<svg xmlns="http://www.w3.org/2000/svg" width="32" height="32" fill="none"><path fill="#192A32" d="M32 24.398V2H0v22.398h11.297v2.805a.943.943 0 0 1-.945.938H8.469V30H23.53v-1.86h-1.883a.943.943 0 0 1-.945-.937v-2.805H32ZM1.875 3.86h28.25v14.946H1.875V3.859Zm11.133 24.282c.106-.294.164-.61.164-.938v-2.805h5.656v2.805c0 .329.058.644.164.938h-5.984ZM1.875 22.539v-1.875h28.25v1.875H1.875Z"/><path fill="#192A32" d="m7 11 1.42-1.408L9.84 11l-1.42 1.408L7 11ZM22 11l1.42-1.408L24.84 11l-1.42 1.408L22 11ZM15.5 6c-2.933 1.862-4.513 3.647-4.5 5.49 0 1.732 1.329 3.142 2.962 3.142.21 0 .418-.024.62-.07V16h1.835v-1.438c.203.046.41.07.62.07 1.634 0 2.963-1.41 2.963-3.141.035-1.98-1.862-3.81-4.5-5.491Zm1.538 6.685c-.604.074-1.19-.84-1.538-1.245-.4.444-.842 1.26-1.538 1.245-.621 0-1.127-.536-1.127-1.195 0-1.046 1.354-2.257 2.665-3.183 1.31.926 2.664 2.137 2.664 3.183 0 .66-.505 1.195-1.126 1.195Z"/></svg>