<svg xmlns="http://www.w3.org/2000/svg" width="32" height="32" fill="none"><path fill="#192A32" d="M17 16h2v2h-2v-2ZM21 16h2v2h-2v-2ZM13 16h2v2h-2v-2ZM9 16h2v2H9v-2Z"/><path fill="#192A32" d="M21.648 6H10.352C4.644 6 0 10.71 0 16.5S4.644 27 10.352 27h11.296C27.356 27 32 22.29 32 16.5S27.356 6 21.648 6ZM11.29 23.18h3.774v1.918h-3.774V23.18Zm5.649 0h3.773v1.918h-3.773V23.18Zm4.71-1.901H10.352c-2.598 0-4.711-2.144-4.711-4.779s2.113-4.778 4.71-4.778h11.297c2.598 0 4.711 2.143 4.711 4.778s-2.113 4.779-4.71 4.779Zm-4.71-11.46V7.903h3.773V9.82h-3.773Zm-1.875 0h-3.774V7.903h3.774V9.82ZM1.874 16.5c0-4.42 3.305-8.07 7.54-8.545v1.933c-3.19.463-5.65 3.251-5.65 6.612 0 3.36 2.46 6.15 5.65 6.612v1.933c-4.235-.475-7.54-4.125-7.54-8.545Zm20.71 8.545v-1.933c3.19-.463 5.65-3.251 5.65-6.612 0-3.36-2.46-6.15-5.65-6.612V7.955c4.235.475 7.54 4.125 7.54 8.545s-3.305 8.07-7.54 8.545Z"/></svg>